<?xml version="1.0" standalone="no"?>
<!DOCTYPE svg PUBLIC "-//W3C//DTD SVG 20010904//EN"
 "http://www.w3.org/TR/2001/REC-SVG-20010904/DTD/svg10.dtd">
<svg version="1.0" xmlns="http://www.w3.org/2000/svg"
 width="480.000000pt" height="480.000000pt" viewBox="0 0 480.000000 480.000000"
 preserveAspectRatio="xMidYMid meet">
<metadata>
Created by potrace 1.11, written by Peter Selinger 2001-2013
</metadata>
<g transform="translate(0.000000,480.000000) scale(0.100000,-0.100000)"
fill="#000000" stroke="none">
<path d="M1755 4304 c-423 -77 -784 -388 -919 -794 -20 -60 -43 -151 -50 -202
-14 -90 -15 -94 -58 -132 -182 -163 -393 -276 -575 -307 -85 -14 -118 -31
-138 -69 -36 -70 -11 -122 106 -214 143 -113 379 -221 570 -260 99 -20 251
-36 344 -36 41 0 75 -2 75 -5 0 -3 -28 -42 -63 -88 -111 -146 -182 -313 -208
-487 -16 -113 -7 -322 20 -422 98 -375 384 -665 761 -775 l95 -27 885 -4 c964
-3 995 -2 1188 54 104 30 265 105 352 164 440 299 673 880 658 1645 -3 170 -4
183 -30 237 -54 115 -160 192 -283 205 -76 8 -134 -10 -255 -77 -255 -141
-515 -208 -897 -230 -92 -5 -206 -7 -253 -3 l-86 6 42 81 c94 182 134 348 134
556 0 147 -17 259 -58 380 -144 423 -500 728 -936 805 -109 19 -313 18 -421
-1z m428 -240 c478 -108 804 -564 749 -1049 -20 -178 -82 -335 -189 -474 -91
-120 -93 -122 -93 -165 0 -47 19 -80 59 -100 74 -39 627 -45 881 -11 268 37
501 108 708 216 154 80 187 86 233 40 l29 -29 0 -212 c0 -235 -10 -348 -45
-526 -76 -376 -239 -662 -485 -845 -81 -60 -224 -126 -333 -154 -172 -43 -259
-47 -1117 -43 -794 4 -806 4 -885 26 -173 48 -337 152 -445 284 -61 75 -142
237 -164 328 -47 200 -23 398 72 586 37 73 137 202 181 233 54 39 77 112 51
161 -6 11 -48 57 -94 102 -212 210 -309 474 -284 778 40 506 486 898 996 875
56 -3 135 -12 175 -21z m-1393 -1173 c0 -37 52 -197 90 -279 31 -66 36 -82 22
-78 -9 2 -44 7 -77 11 -85 10 -227 48 -315 86 -126 53 -127 48 12 117 68 34
152 84 188 111 73 56 80 59 80 32z"/>
<path d="M1640 3607 c-20 -7 -44 -26 -57 -46 -22 -32 -23 -43 -23 -208 0 -186
6 -215 52 -247 13 -9 43 -16 69 -16 51 0 91 27 109 75 16 42 13 339 -4 380
-24 56 -85 82 -146 62z"/>
<path d="M3874 1771 c-12 -5 -47 -43 -78 -84 -121 -161 -283 -279 -476 -347
-73 -26 -95 -42 -117 -84 -30 -57 8 -137 74 -155 31 -9 50 -6 125 19 225 76
434 228 580 423 50 68 58 85 58 123 0 62 -39 104 -100 110 -25 2 -55 0 -66 -5z"/>
<path d="M2690 1272 c-22 -10 -42 -32 -54 -56 -17 -36 -18 -43 -5 -80 22 -63
64 -86 159 -86 95 0 137 23 159 86 13 37 12 44 -5 80 -25 52 -71 74 -154 74
-42 0 -77 -6 -100 -18z"/>
</g>
</svg>
